<svg width="1395" height="1647" viewBox="0 0 1395 1647" fill="none" xmlns="http://www.w3.org/2000/svg">
<mask id="mask0_525_17" style="mask-type:alpha" maskUnits="userSpaceOnUse" x="0" y="0" width="1395" height="1647">
<rect width="1395" height="1647" fill="#EEF0EB"/>
</mask>
<g mask="url(#mask0_525_17)">
<path d="M1348.5 34.5C1544.77 96.2966 1650.47 324.041 1732.98 430.275C1816.74 535.816 1782.99 671.907 1707.98 799.666C1632.97 928.12 1517.96 1048.94 1337.94 1118.37C1159.17 1187.11 915.397 1203.77 685.374 1194.75C454.1 1185.03 235.327 1149.62 76.5603 1077.4C-82.2062 1004.5 -180.966 894.791 -254.724 778.142C-328.482 661.492 -377.237 537.899 -319.731 431.664C-262.225 325.43 -177.519 171.574 5 107C345 -13.2897 486.603 39.8339 685.374 44C882.894 48.1661 1152.23 -27.9909 1348.5 34.5Z" fill="#EEF0EB"/>
<line y1="-0.5" x2="1215.31" y2="-0.5" transform="matrix(0.999966 0.00822837 -0.00863945 0.999963 112.717 1353)" stroke="black"/>
<rect x="0.00244141" y="296.726" width="1476.56" height="2937.27" fill="#EEF0EB"/>
</g>
</svg>
