<svg width="720" height="667" viewBox="0 0 720 667" fill="none" xmlns="http://www.w3.org/2000/svg">
<path d="M511.25 120.912C558.815 154.132 583.73 220.572 584.862 280.972C585.995 341.372 563.345 395.732 550.51 459.152C537.675 522.572 534.277 594.675 498.037 632.425C461.42 670.552 391.96 674.327 336.845 654.697C281.73 634.69 240.582 591.655 180.937 561.077C121.292 530.877 43.1499 513.135 14.4599 469.345C-14.6076 425.177 6.5324 354.207 40.8849 300.602C75.6149 246.62 124.312 210.002 173.387 177.16C222.462 143.94 272.67 114.872 332.692 100.905C393.092 86.5598 463.685 87.3148 511.25 120.912Z" fill="#EEF0EB"/>
<path d="M446.167 12.875C481.204 34.4375 490.134 90.375 489.791 137.563C489.447 185.063 479.829 223.5 464.372 258.5C448.914 293.5 427.617 324.438 397.046 344.125C366.818 363.5 327.659 371.313 275.79 386.938C223.922 402.875 159.687 426.625 120.528 409.75C81.713 392.875 68.3165 335.375 66.9425 285.063C65.5685 234.75 76.217 191.938 90.9875 149.75C105.758 107.875 123.963 66.9375 157.626 44.75C191.289 22.875 239.723 19.75 294.683 11.9375C349.643 3.8125 411.13 -8.68749 446.167 12.875Z" fill="#153243"/>
<path d="M643.603 289.183C664.048 313.383 661.463 356.723 676.033 395.663C690.838 434.603 723.033 469.143 718.803 496.203C714.808 523.263 674.388 543.063 637.963 560.223C601.538 577.603 569.108 592.563 539.733 588.823C510.358 584.863 484.038 561.983 460.068 540.863C436.333 519.743 414.948 500.163 395.913 473.323C376.643 446.703 359.723 412.383 366.538 383.123C373.353 353.863 403.668 329.663 436.098 309.203C468.293 288.743 502.603 272.243 541.143 266.303C579.918 260.363 623.158 265.203 643.603 289.183Z" fill="#284B63"/>
</svg>
